PathFileType	4	(X/Y/Z)	C:/Users/beibeiliu/ov580/test_trc/User3\out5_training_dense_left.trc
DataRate	CameraRate	NumFrames	NumMarkers	Units	OrigDataRate	OrigDataStartFrame	OrigNumFrames
120	120	24	19	mm	120	251	500
Frame#	Time	ThumbCMC			ThumbMCP			ThumbIP			ThumbTip			IndexMCP			IndexPIP			IndexTip			MiddleMCP			MiddlePIP			MiddleTip			RingMCP			RingPIP			RingTip			PinkyMCP			PinkyPIP			PinkyTip			BackHand1			BackHand2			BackHand3	
		X0	Y0	Z0	X1	Y1	Z1	X2	Y2	Z2	X3	Y3	Z3	X4	Y4	Z4	X5	Y5	Z5	X6	Y6	Z6	X7	Y7	Z7	X8	Y8	Z8	X9	Y9	Z9	X10	Y10	Z10	X11	Y11	Z11	X12	Y12	Z12	X13	Y13	Z13	X14	Y14	Z14	X15	Y15	Z15	X16	Y16	Z16	X17	Y17	Z17	X18	Y18	Z18	
250	2.08333	-134.928	50.4643	4.85548	-118.277	43.2247	-28.1148	-127.728	36.7594	-58.1861	-147.804	27.5629	-67.3986	-147.315	83.2632	-59.2831	-139.241	58.4075	-79.046	-134.51	37.2162	-47.686	-171.117	76.1386	-68.8132	-154.955	53.4849	-83.812	-150.647	31.0858	-53.8245	-184.729	64.6739	-60.9431	-175.92	39.8271	-78.5182	-162.787	23.7437	-53.553	-198.88	49.7737	-52.9749	-185.824	29.8002	-69.5333	-173.46	12.7112	-49.5951	-194.407	67.4686	-3.86208	-193.01	53.0006	23.4186	-165.298	70.4009	13.3287	
251	2.09167	-127.302	50.9941	7.35402	-112.268	40.0695	-23.8808	-119.647	29.9079	-54.6329	-143.207	20.8389	-64.3441	-143.281	72.9961	-65.2866	-129.684	47.3689	-77.5048	-126.257	33.0876	-49.1656	-162.789	66.9878	-71.3752	-149.877	42.3378	-85.3871	-142.324	24.6247	-51.3191	-178.823	53.6416	-68.1493	-164.033	29.1027	-78.5232	-155.907	16.1257	-47.479	-191.906	39.7831	-54.5034	-176.866	19.1976	-68.3781	-163.656	8.25214	-40.0724	-190.493	65.7734	-10.9535	-191.551	54.6809	20.8142	-165.586	72.267	7.91509	
252	2.1	-127.112	51.6735	7.98924	-106.278	39.9625	-24.7609	-108.382	25.1641	-49.5776	-130.604	10.3422	-61.6277	-135.904	66.0274	-64.6893	-121.745	35.6251	-74.3539	-120.441	25.9195	-42.6729	-156.324	54.6164	-75.4379	-137.917	30.8491	-83.5526	-133.088	18.0555	-42.8309	-169.906	41.0965	-68.0225	-154.441	17.1789	-74.6132	-148.281	7.40651	-42.1543	-185.21	25.0998	-59.339	-162.397	7.88933	-60.0157	-155.601	6.53629	-31.9481	-186.329	59.1577	-13.8546	-189.175	54.8498	16.6203	-161.227	72.7451	4.00056	
253	2.10833	-120.754	55.2973	12.6631	-102.384	39.6811	-15.2836	-97.2504	22.2395	-42.334	-116.862	3.24849	-55.2042	-130.666	55.048	-66.5313	-109.292	32.6978	-70.9717	-106.97	23.535	-37.9742	-145.365	44.0302	-73.9603	-125.303	21.6556	-78.7232	-123.368	12.6998	-38.6892	-159.063	26.3419	-67.1827	-142.397	3.28909	-64.0594	-137.266	5.3164	-28.8335	-172.891	13.4083	-55.4052	-149.693	-2.59709	-49.4481	-146.218	-0.478605	-21.3455	-184.286	53.6326	-19.9202	-188.904	51.885	11.1527	-156.512	71.0448	0.260142	
254	2.11667	-121.016	57.6909	11.2187	-93.4128	41.8739	-8.01146	-86.5997	22.492	-28.9368	-104.788	0.17288	-42.8672	-118.354	52.174	-60.06	-95.2226	28.7232	-61.3395	-98.1032	23.3349	-26.497	-136.924	35.9774	-66.5784	-110.784	13.1119	-68.1362	-112.104	11.0979	-24.017	-146.665	18.4519	-59.2241	-122.871	-2.77103	-50.1428	-125.499	3.06952	-17.0919	-159.198	1.9317	-46.997	-134.897	-7.80723	-38.373	-133.312	2.69854	-9.0372	-176.681	48.0395	-20.3877	-183.11	48.1464	10.9782	-155.666	69.5596	1.59985	
255	2.125	-119.292	59.3667	15.8145	-89.9866	45.5025	3.09639	-75.4037	24.3425	-15.4504	-89.4146	-0.469959	-27.9261	-108.534	47.9415	-54.3692	-82.6669	24.405	-50.1841	-85.6334	21.0684	-18.8373	-117.106	30.4406	-60.342	-96.0548	8.36931	-55.3913	-100.168	9.26356	-14.5412	-129.438	13.1635	-50.5764	-107.977	-7.71114	-35.8569	-110.171	4.86697	-3.90329	-139.451	-4.63636	-38.9715	-120.347	-14.2937	-23.1913	-121.284	2.44107	4.89606	-168.112	40.3963	-19.3337	-179.353	44.7961	10.4655	-155.909	65.7437	1.09424	
256	2.13333	-116.565	65.7998	22.396	-82.9652	51.5669	10.7762	-69.796	29.2793	-5.59103	-72.7855	1.58028	-16.7152	-97.0903	48.4486	-46.6858	-66.521	31.102	-38.3426	-74.6218	28.199	-6.73763	-106.973	23.4255	-51.8416	-78.1651	8.71807	-42.7696	-85.1925	13.5485	-3.76775	-110.434	7.92776	-42.025	-90.3038	-5.95655	-25.3073	-97.1904	6.5179	4.97121	-124.453	-8.32483	-29.1205	-100.456	-9.57793	-14.544	-104.677	4.15119	11.5225	-158.668	32.0725	-17.7438	-174.789	39.5471	9.77747	-153.034	61.7364	0.0450162	
257	2.14167	-116.138	71.0671	23.9805	-79.7681	60.5213	13.8434	-63.4596	39.9832	4.03306	-62.4407	12.2008	-3.21425	-85.5299	48.3345	-44.5518	-59.5316	34.9351	-30.1625	-66.4995	36.5168	-1.00158	-91.1341	27.4211	-46.6259	-63.9142	14.3816	-28.1482	-75.9747	24.9691	6.2499	-101.124	8.44724	-33.9755	-75.0052	-0.587458	-16.5945	-82.3082	14.657	12.1969	-108.307	-8.26275	-19.9455	-85.5991	-5.62289	-3.18477	-92.6745	7.91851	22.4032	-148.333	25.6985	-15.4782	-169.562	31.7221	11.0121	-146.358	56.2549	-4.02726	
258	2.15	-119.728	72.2102	21.8852	-85.3572	70.032	19.1872	-55.1347	53.4231	8.17654	-52.6235	26.1378	4.26462	-82.4387	50.582	-39.0658	-53.7415	46.7503	-25.3483	-62.8532	50.1843	5.38807	-83.4223	26.0443	-40.0961	-53.4124	28.5391	-21.0286	-73.2523	32.4054	12.9559	-85.1573	11.6314	-27.4618	-60.5658	13.0878	-7.8207	-77.2117	24.1362	22.0053	-91.3609	-3.09741	-14.4796	-70.7854	1.86911	6.05996	-82.4955	14.9202	25.2805	-142.659	18.0456	-10.254	-161.418	26.0527	11.6466	-146.014	51.9043	-1.80603	
259	2.15833	-122.991	74.8147	18.7142	-87.7929	80.0398	16.3733	-58.7155	65.0754	8.10691	-47.265	40.0134	10.1443	-81.3089	53.3616	-36.9581	-52.8446	63.509	-23.0683	-65.5047	65.6756	8.38102	-76.6225	32.2049	-36.4735	-48.904	38.7596	-20.2938	-71.9355	46.976	16.1363	-75.4911	15.1283	-22.131	-53.7068	22.1177	-5.06288	-71.6313	36.8222	23.3297	-84.3519	2.38641	-7.69479	-61.9455	10.6926	10.8516	-78.9753	27.289	29.9956	-135.938	10.9721	-6.21606	-155.075	17.6712	15.4906	-146.451	49.4104	-4.56219	
260	2.16667	-130.231	72.0263	16.7457	-97.4196	87.6261	12.6187	-67.1298	78.8769	8.37873	-53.4116	56.5545	13.0158	-80.0592	57.4387	-36.3493	-56.5358	68.5465	-21.7165	-72.8847	74.949	8.83079	-74.6155	38.4622	-34.0536	-48.4913	51.8973	-18.4648	-73.5917	56.8291	16.2822	-73.803	24.5137	-19.6806	-49.4945	36.8214	-3.75871	-68.4654	45.1375	23.9317	-69.4925	10.5664	-3.57503	-55.3921	24.3829	11.7361	-78.1667	37.2679	33.927	-126.248	7.32596	-2.00588	-148.024	9.12375	18.4581	-144.315	37.7339	-1.14968	
261	2.175	-139.981	67.7751	16.1716	-109.238	90.6128	8.39505	-75.9608	84.7566	3.38948	-60.151	64.9674	9.96646	-86.4062	64.8627	-39.2025	-65.3507	83.065	-21.6215	-81.6768	77.3923	6.77143	-73.3181	43.8311	-35.2782	-51.329	61.0885	-16.8759	-74.3999	61.978	12.3491	-69.7395	28.2447	-18.0364	-48.4225	46.1762	0.0206887	-71.0248	55.6603	22.9278	-68.4174	17.3044	-1.94967	-54.061	35.9676	13.178	-77.7708	43.6868	32.2683	-117.069	7.50738	-3.0159	-138.97	2.02406	18.7446	-146.484	34.9584	-3.66888	
262	2.18333	-147.311	61.3308	12.5843	-122.553	85.5592	1.5113	-94.4339	91.6177	-1.14914	-69.1757	70.2357	5.92933	-91.2481	62.697	-41.3636	-78.181	88.7612	-25.6212	-94.5139	79.1696	3.08871	-79.1545	46.8092	-36.4328	-60.4363	72.0445	-23.2991	-83.6971	65.8801	9.24341	-68.7557	35.8753	-20.388	-54.567	58.3787	-3.12479	-77.0337	63.7372	18.4218	-63.0863	25.1545	-3.79736	-56.3984	48.7244	13.1685	-76.021	52.7109	30.9393	-117.91	6.15992	-1.71782	-136.091	-3.07889	23.5249	-143.873	24.3571	-0.896777	
263	2.19167	-157.618	53.4706	9.30792	-137.634	83.2851	-6.55576	-107.034	91.5357	-11.0174	-85.5703	75.3255	-0.769597	-104.457	62.2876	-47.3604	-93.0714	89.2291	-32.7165	-110.236	82.1887	-6.62301	-86.1576	48.4523	-41.3756	-72.7907	77.5823	-27.9765	-97.7171	67.055	4.14035	-76.5867	42.0448	-26.6276	-63.0958	65.45	-12.2808	-87.6458	68.9792	11.8556	-68.7778	32.8105	-7.26392	-65.4161	59.1065	4.25168	-85.2711	57.6592	26.5898	-110.022	3.01729	-1.12475	-128.755	-6.12603	24.9	-144.597	18.0769	-5.92223	
264	2.2	-160.908	38.6938	7.37885	-155.28	70.0071	-9.84764	-123.053	85.3368	-21.1157	-100.631	76.3524	-9.64158	-113.054	52.4386	-52.75	-110.938	83.1087	-47.0372	-123.807	76.9788	-15.9499	-91.4234	47.5787	-48.9687	-90.4208	77.6921	-39.0848	-110.718	67.0481	-6.66394	-82.2612	40.7932	-31.6314	-78.8402	71.5527	-22.5496	-99.1642	69.4327	2.30571	-71.236	39.0915	-15.1577	-72.1916	63.309	-6.38775	-91.8368	60.7246	14.1921	-110.998	1.46908	-3.8841	-122.448	-8.43578	22.3971	-145.081	4.50224	-3.24609	
265	2.20833	-167.645	29.5228	1.49436	-165.784	56.0685	-14.9704	-142.663	75.1367	-28.7033	-115.51	67.8646	-17.9187	-126.105	39.2013	-56.39	-125.466	74.0536	-51.3944	-135.699	66.2292	-24.0646	-106.3	38.1814	-54.8487	-101.245	69.5449	-49.3727	-119.471	60.001	-13.6886	-92.5221	39.4293	-41.418	-88.4315	67.7356	-30.4323	-107.767	65.8581	-5.80253	-79.6458	35.9705	-22.3342	-85.8711	63.5028	-13.6646	-102.255	55.7301	8.71457	-110.9	-6.00839	-3.92734	-119.973	-13.5991	21.0026	-148.149	-4.07493	-4.42038	
266	2.21667	-172.533	19.5945	2.61153	-173.125	43.5215	-18.6631	-152.862	62.0038	-33.2658	-125.267	58.1735	-22.9947	-135.23	28.0665	-59.9597	-137.817	61.806	-61.4133	-147.944	56.5156	-29.7119	-113.043	29.1291	-58.8655	-114.963	62.214	-55.1703	-128.885	50.4697	-16.6108	-101.466	30.1991	-46.3897	-99.6915	60.8178	-40.414	-117.728	56.9571	-7.9013	-88.3698	33.1086	-30.3831	-93.5169	59.8417	-21.3947	-110.122	51.2233	1.61093	-113.757	-10.8193	-8.12758	-118.607	-15.5873	24.6331	-149.926	-11.4424	-0.812742	
267	2.225	-177.086	12.382	6.01284	-181.178	36.4305	-20.106	-160.46	52.1424	-33.1367	-130.29	52.3512	-27.3976	-145.85	16.8705	-61.6987	-148.55	52.0109	-61.1218	-153.352	44.134	-28.1638	-123.681	21.8333	-63.4909	-125.608	51.7152	-60.6379	-138.374	44.4891	-21.3153	-106.283	20.9426	-47.5924	-110.167	54.217	-45.2172	-122.796	52.9401	-15.8119	-96.794	23.7839	-33.5617	-101.4	51.2391	-29.8478	-114.268	46.0884	-3.06957	-113.993	-16.0975	-4.90104	-120.848	-18.9673	27.5699	-151.692	-17.1062	3.06035	
268	2.23333	-182.472	7.52075	10.5874	-184.252	28.6255	-17.2673	-164.817	45.1866	-40.7878	-138.429	45.1085	-32.9835	-158.019	8.58163	-63.9707	-158.361	38.4985	-67.0051	-162.362	36.4618	-29.227	-132.643	8.4387	-63.69	-134.454	41.5917	-61.5159	-144.333	38.0743	-26.8262	-115.269	11.1087	-51.4093	-119.469	40.9864	-52.482	-129.361	43.8853	-23.3202	-100.358	13.5253	-38.278	-108.838	39.6941	-38.5725	-119.501	35.2582	-8.68246	-121.353	-23.0953	-3.20336	-126.971	-23.2981	29.6429	-155.141	-23.9516	3.84953	
269	2.24167	-189.062	8.9324	16.4561	-190.884	27.6891	-18.2236	-172.839	36.6445	-40.9136	-139.876	33.5388	-40.3693	-170.585	-6.0335	-57.1185	-167.789	25.6123	-67.3883	-171.675	31.0436	-33.4498	-145.339	-9.2666	-59.9392	-145.214	22.0255	-70.3642	-149.82	28.8982	-31.282	-132.477	-3.80371	-55.2307	-130.324	28.0983	-56.6603	-135.873	31.096	-22.4727	-113.175	-3.54871	-39.4466	-116.254	24.3289	-46.2221	-121.823	29.4911	-18.2183	-132.519	-28.0396	1.01048	-136.058	-27.5996	31.1879	-168.549	-24.5971	14.3021	
270	2.25	-185.674	13.815	19.5328	-191.277	29.814	-16.4456	-177.536	32.5773	-44.4179	-149.963	23.9292	-48.7709	-187.615	-13.7805	-51.8211	-178.233	14.6392	-65.8731	-175.199	27.8839	-35.2237	-168.132	-20.8778	-59.0154	-159.819	6.41539	-71.4374	-157.657	18.7773	-30.5501	-149.404	-19.5733	-51.4706	-138.484	7.30353	-61.4793	-144.419	20.4743	-26.1826	-129.463	-21.7021	-38.8542	-129.446	1.93265	-53.2413	-127.877	18.437	-22.2098	-147.071	-35.6579	5.55127	-142.972	-27.5887	35.2411	-177.393	-24.4155	22.0391	
271	2.25833	-185.965	23.9482	21.8335	-188.589	35.5776	-15.4968	-180.585	32.3795	-44.4718	-158.822	13.8213	-49.5547	-206.828	-10.3543	-43.6232	-194.393	13.6352	-60.3229	-178.27	26.3601	-32.1517	-188.29	-25.1365	-50.7142	-179.7	-0.484909	-67.1815	-165.17	16.506	-34.1851	-169.449	-27.1587	-42.577	-156.921	-1.68286	-57.6974	-148.597	11.046	-27.8033	-152.089	-32.6756	-35.7286	-142.438	-10.1171	-52.178	-136.937	5.75506	-25.893	-164.102	-39.048	10.9284	-155.114	-28.0717	41.4893	-186.639	-14.4013	28.3305	
272	2.26667	-180.658	34.5702	26.2765	-182.526	40.2945	-8.75574	-182.593	33.1246	-44.5739	-169.155	15.554	-53.1965	-217.283	-1.70112	-31.297	-206.87	17.7599	-54.8319	-182.357	29.6477	-35.2234	-207.035	-17.853	-41.1332	-188.455	2.113	-59.8445	-171.729	17.7353	-31.8341	-188.217	-23.2022	-39.3702	-172.856	-5.16674	-55.1805	-158.337	10.5173	-26.7768	-170.934	-36.7562	-29.1722	-160.819	-18.6142	-51.0915	-145.399	-1.35904	-34.3115	-177.545	-33.6587	21.7566	-164.149	-23.577	47.9271	-191.67	-2.0456	37.4796	
273	2.275	-177.813	41.1165	26.199	-177.632	48.3229	-6.96277	-181.492	40.1571	-39.1348	-174.63	20.6991	-52.3937	-225.929	19.2458	-23.2801	-211.632	33.582	-50.5564	-184.499	41.8079	-31.2898	-218.295	-1.98398	-33.2685	-201.445	9.79008	-58.6186	-174.111	24.3226	-31.7221	-200.277	-15.5036	-36.9093	-183.287	1.31067	-53.3453	-161.946	12.9836	-24.7062	-187.378	-28.7847	-25.8882	-174.219	-15.5172	-50.8794	-156.557	2.74472	-39.0761	-189.332	-24.2513	24.9012	-170.618	-18.9263	48.5098	-193.462	5.95939	39.3882	
